<?xml version="1.0" encoding="UTF-8" standalone="no"?>
<svg
   xmlns:dc="http://purl.org/dc/elements/1.1/"
   xmlns:cc="http://creativecommons.org/ns#"
   xmlns:rdf="http://www.w3.org/1999/02/22-rdf-syntax-ns#"
   xmlns:svg="http://www.w3.org/2000/svg"
   xmlns="http://www.w3.org/2000/svg"
   xmlns:sodipodi="http://sodipodi.sourceforge.net/DTD/sodipodi-0.dtd"
   xmlns:inkscape="http://www.inkscape.org/namespaces/inkscape"
   viewBox="0 0 700 700"
   version="1.1"
   id="svg6"
   sodipodi:docname="hering-logo-1.svg"
   width="700"
   height="700"
   inkscape:export-filename="C:\Users\suitedoalex\sites\hering-logo-0.png"
   inkscape:export-xdpi="561.73999"
   inkscape:export-ydpi="561.73999"
   inkscape:version="0.92.4 (5da689c313, 2019-01-14)">
  <metadata
     id="metadata10">
    <rdf:RDF>
      <cc:Work
         rdf:about="">
        <dc:format>image/svg+xml</dc:format>
        <dc:type
           rdf:resource="http://purl.org/dc/dcmitype/StillImage" />
        <dc:title></dc:title>
      </cc:Work>
    </rdf:RDF>
  </metadata>
  <sodipodi:namedview
     pagecolor="#ffffff"
     bordercolor="#666666"
     borderopacity="1"
     objecttolerance="10"
     gridtolerance="10"
     guidetolerance="10"
     inkscape:pageopacity="0"
     inkscape:pageshadow="2"
     inkscape:window-width="1600"
     inkscape:window-height="837"
     id="namedview8"
     showgrid="false"
     inkscape:zoom="0.28793103"
     inkscape:cx="301.69294"
     inkscape:cy="724.80121"
     inkscape:window-x="-8"
     inkscape:window-y="-8"
     inkscape:window-maximized="1"
     inkscape:current-layer="svg6" />
  <defs
     id="defs2" />
  <path
     d="m 160.13024,363.73955 v 0 c -13.29959,1.23223 -25.0695,-4.16408 -32.88779,-12.61973 22.43508,-11.98237 36.9244,-31.31563 33.39768,-36.32953 -4.07911,-5.82122 -29.6585,4.0791 -47.20715,20.22556 C 95.884329,318.8269 70.304939,308.92658 66.183343,314.7478 c -3.569217,5.09888 11.047577,24.38965 33.397675,36.32953 -7.818285,8.41315 -19.588204,13.85196 -32.930278,12.61973 -0.977285,-0.085 -1.402192,1.06227 -0.594869,1.69963 4.206578,3.35676 9.432931,5.18386 14.701776,5.22635 -1.742118,4.97141 -1.86959,10.4952 -0.127472,15.59408 0.339925,0.97729 1.572155,0.9348 1.784608,0 3.569217,-13.46954 12.874676,-23.7098 28.808677,-28.51124 0.72235,-0.21246 1.44469,-0.42491 2.12454,-0.67986 0.72234,0.25495 1.40219,0.4674 2.12453,0.67986 15.93401,4.80144 25.23947,15.08419 28.80868,28.51124 0.25495,0.9348 1.48718,0.97729 1.8271,0 1.74212,-5.14137 1.61465,-10.62267 -0.12747,-15.59408 5.26884,-0.0425 10.4952,-1.86959 14.70178,-5.22635 0.84981,-0.59487 0.38241,-1.78461 -0.55238,-1.65714 z M 145.30099,322.0562 c 1.27472,-0.89231 3.01684,-0.55238 3.86665,0.67985 0.89231,1.27472 0.55238,2.97434 -0.67985,3.86665 -1.27472,0.8923 -2.97435,0.59487 -3.86665,-0.67985 -0.89231,-1.23223 -0.59487,-2.97435 0.67985,-3.86665 z m -63.09866,3.90914 c -0.892305,1.27472 -2.634422,1.57215 -3.866652,0.67985 -1.274721,-0.89231 -1.572155,-2.63442 -0.679851,-3.86665 0.849814,-1.27472 2.591931,-1.57216 3.866652,-0.72234 1.23223,0.8923 1.529664,2.63442 0.679851,3.90914 z m 166.13856,17.7611 H 212.7337 v -23.36987 h -16.8688 v 59.31699 h 16.8688 v -24.13471 h 35.60719 v 24.13471 h 16.99627 v -59.31699 h -16.99627 z m 52.98588,11.3875 h 41.64087 v -11.04757 h -41.64087 v -11.8549 h 43.04306 v -11.8549 h -59.91186 v 59.31699 h 60.50673 v -11.8549 h -43.63793 z m 125.85739,-15.97649 c 0,-9.00803 -5.52379,-18.82337 -24.55961,-18.82337 h -40.45113 v 59.31699 h 16.8688 v -20.9904 h 17.12375 l 14.1069,20.9904 h 19.03583 l -15.46661,-22.90248 c 10.0278,-3.1868 13.34207,-10.9626 13.34207,-17.59114 z m -28.38377,8.79557 H 379.08471 V 331.6166 h 19.71568 c 8.11572,0 10.53769,3.90914 10.53769,8.03074 -0.0425,4.16408 -2.46446,8.28568 -10.53769,8.28568 z m 44.95514,-27.57645 h 16.8688 v 59.31699 h -16.8688 z m 89.48537,39.13391 -35.81964,-39.13391 h -18.05854 v 59.31699 h 15.29664 v -39.43135 l 37.09437,39.43135 h 16.78382 V 320.35657 H 533.2409 Z m 65.94554,-13.12962 v 11.81241 H 619.412 v 8.49814 c -4.5465,1.95457 -10.41022,2.93186 -17.50616,2.93186 -7.64832,0 -13.46955,-1.69963 -17.37869,-5.0139 -3.86665,-3.31428 -5.82122,-8.2432 -5.82122,-14.74427 0,-6.33111 1.86959,-10.79263 5.52379,-14.19189 3.69669,-3.39925 8.96553,-5.09888 15.72155,-5.09888 4.58899,0 8.32817,0.76483 11.13256,2.12454 4.75895,2.33698 6.16114,7.01096 6.16114,7.01096 l 16.10397,-1.74212 c 0,0 -1.91208,-9.26297 -11.72743,-14.87174 -5.60877,-3.22929 -12.78969,-4.84394 -21.33032,-4.84394 -7.77579,0 -14.65928,1.35971 -20.39552,3.99413 -5.77874,2.67691 -10.24026,6.45858 -13.2571,11.30252 -3.01683,4.84394 -4.58899,10.07029 -4.58899,16.52887 0,9.94282 3.56922,17.8036 10.62267,23.41237 7.01096,5.56628 16.82631,8.37066 29.1911,8.37066 6.11866,0 11.8549,-0.72234 17.54865,-2.16702 9.30546,-2.33699 14.95672,-6.3736 14.95672,-6.3736 v -27.02408 h -35.18228 z"
     class="st0"
     id="path4"
     inkscape:connector-curvature="0"
     style="fill:#102c4a;stroke-width:4.24906778;fill-opacity:1"
     inkscape:export-filename="C:\Users\suitedoalex\sites\hering-logo-4.png"
     inkscape:export-xdpi="67.517975"
     inkscape:export-ydpi="67.517975" />
  <path
     d="m 988.92382,369.92476 v 0 c -13.2996,1.23223 -25.0695,-4.16408 -32.8878,-12.61973 22.4351,-11.98237 36.9244,-31.31563 33.3977,-36.32953 -4.0791,-5.82122 -29.6585,4.0791 -47.2072,20.22556 -17.5486,-16.18895 -43.128,-26.08927 -47.2496,-20.26805 -3.5692,5.09888 11.0476,24.38965 33.3977,36.32953 -7.8183,8.41315 -19.5882,13.85196 -32.9303,12.61973 -0.9773,-0.085 -1.4022,1.06227 -0.5949,1.69963 4.2066,3.35676 9.433,5.18386 14.7018,5.22635 -1.7421,4.97141 -1.8696,10.4952 -0.1275,15.59408 0.34,0.97729 1.5722,0.9348 1.7846,0 3.5693,-13.46954 12.8747,-23.7098 28.8087,-28.51124 0.7224,-0.21246 1.4447,-0.42491 2.1246,-0.67986 0.7223,0.25495 1.4021,0.4674 2.1245,0.67986 15.934,4.80144 25.2395,15.08419 28.8087,28.51124 0.2549,0.9348 1.4871,0.97729 1.8271,0 1.7421,-5.14137 1.6146,-10.62267 -0.1275,-15.59408 5.2688,-0.0425 10.4952,-1.86959 14.7018,-5.22635 0.8498,-0.59487 0.3824,-1.78461 -0.5524,-1.65714 z m -14.8293,-41.68335 c 1.2748,-0.89231 3.0169,-0.55238 3.8667,0.67985 0.8923,1.27472 0.5524,2.97434 -0.6799,3.86665 -1.2747,0.8923 -2.9743,0.59487 -3.8666,-0.67985 -0.8923,-1.23223 -0.5949,-2.97435 0.6798,-3.86665 z m -63.0986,3.90914 c -0.8923,1.27472 -2.6344,1.57215 -3.8667,0.67985 -1.2747,-0.89231 -1.5721,-2.63442 -0.6798,-3.86665 0.8498,-1.27472 2.5919,-1.57216 3.8666,-0.72234 1.2323,0.8923 1.5297,2.63442 0.6799,3.90914 z m 166.13848,17.7611 h -35.6071 v -23.36987 h -16.8688 v 59.31699 h 16.8688 v -24.13471 h 35.6071 v 24.13471 h 16.9963 v -59.31699 h -16.9963 z m 52.9859,11.3875 h 41.6409 v -11.04757 h -41.6409 v -11.8549 h 43.0431 v -11.8549 h -59.9119 v 59.31699 h 60.5068 v -11.8549 h -43.638 z m 125.8574,-15.97649 c 0,-9.00803 -5.5238,-18.82337 -24.5596,-18.82337 h -40.4511 v 59.31699 h 16.8688 v -20.9904 h 17.1237 l 14.1069,20.9904 h 19.0359 l -15.4667,-22.90248 c 10.0278,-3.1868 13.3421,-10.9626 13.3421,-17.59114 z m -28.3838,8.79557 h -19.7156 v -16.31642 h 19.7156 c 8.1158,0 10.5377,3.90914 10.5377,8.03074 -0.042,4.16408 -2.4644,8.28568 -10.5377,8.28568 z m 44.9552,-27.57645 h 16.8688 v 59.31699 h -16.8688 z m 89.4854,39.13391 -35.8197,-39.13391 h -18.0585 v 59.31699 h 15.2966 v -39.43135 l 37.0944,39.43135 h 16.7838 v -59.31699 h -15.2966 z m 65.9455,-13.12962 v 11.81241 h 20.2256 v 8.49814 c -4.5465,1.95457 -10.4103,2.93186 -17.5062,2.93186 -7.6483,0 -13.4696,-1.69963 -17.3787,-5.0139 -3.8666,-3.31428 -5.8212,-8.2432 -5.8212,-14.74427 0,-6.33111 1.8696,-10.79263 5.5238,-14.19189 3.6967,-3.39925 8.9655,-5.09888 15.7215,-5.09888 4.589,0 8.3282,0.76483 11.1326,2.12454 4.7589,2.33698 6.1611,7.01096 6.1611,7.01096 l 16.104,-1.74212 c 0,0 -1.9121,-9.26297 -11.7274,-14.87174 -5.6088,-3.22929 -12.7897,-4.84394 -21.3304,-4.84394 -7.7757,0 -14.6592,1.35971 -20.3955,3.99413 -5.7787,2.67691 -10.2402,6.45858 -13.2571,11.30252 -3.0168,4.84394 -4.589,10.07029 -4.589,16.52887 0,9.94282 3.5693,17.8036 10.6227,23.41237 7.011,5.56628 16.8263,8.37066 29.1911,8.37066 6.1187,0 11.8549,-0.72234 17.5487,-2.16702 9.3054,-2.33699 14.9567,-6.3736 14.9567,-6.3736 V 352.46109 H 1427.98 Z"
     class="st0"
     id="path4-8"
     inkscape:connector-curvature="0"
     style="fill:#000000;fill-opacity:1;stroke-width:4.24906778"
     inkscape:export-filename="C:\Users\suitedoalex\sites\hering-logo-5.png"
     inkscape:export-xdpi="691.38397"
     inkscape:export-ydpi="691.38397" />
</svg>
