<?xml version="1.0" encoding="UTF-8" standalone="no"?>
<svg
   xmlns:dc="http://purl.org/dc/elements/1.1/"
   xmlns:cc="http://creativecommons.org/ns#"
   xmlns:rdf="http://www.w3.org/1999/02/22-rdf-syntax-ns#"
   xmlns:svg="http://www.w3.org/2000/svg"
   xmlns="http://www.w3.org/2000/svg"
   xmlns:sodipodi="http://sodipodi.sourceforge.net/DTD/sodipodi-0.dtd"
   xmlns:inkscape="http://www.inkscape.org/namespaces/inkscape"
   width="700"
   height="700"
   version="1.1"
   id="svg4"
   sodipodi:docname="o-boticario-logo.svg"
   inkscape:export-filename="C:\Users\suitedoalex\sites\boticario-logo-0.png"
   inkscape:export-xdpi="561.73712"
   inkscape:export-ydpi="561.73712"
   inkscape:version="0.92.4 (5da689c313, 2019-01-14)">
  <metadata
     id="metadata10">
    <rdf:RDF>
      <cc:Work
         rdf:about="">
        <dc:format>image/svg+xml</dc:format>
        <dc:type
           rdf:resource="http://purl.org/dc/dcmitype/StillImage" />
        <dc:title></dc:title>
      </cc:Work>
    </rdf:RDF>
  </metadata>
  <defs
     id="defs8" />
  <sodipodi:namedview
     pagecolor="#ffffff"
     bordercolor="#666666"
     borderopacity="1"
     objecttolerance="10"
     gridtolerance="10"
     guidetolerance="10"
     inkscape:pageopacity="0"
     inkscape:pageshadow="2"
     inkscape:window-width="1600"
     inkscape:window-height="837"
     id="namedview6"
     showgrid="false"
     inkscape:zoom="0.72706422"
     inkscape:cx="110.91895"
     inkscape:cy="312.59236"
     inkscape:window-x="-8"
     inkscape:window-y="-8"
     inkscape:window-maximized="1"
     inkscape:current-layer="svg4" />
  <path
     d="m 199.4838,348.53584 c 5.57486,-2.94168 9.64608,-7.97969 9.64608,-14.66952 0,-11.63796 -8.98779,-18.30593 -24.64475,-18.30593 h -29.60745 v 68.6278 h 31.96006 c 15.35575,0 24.90102,-7.43193 24.90102,-19.37718 0.0121,-8.06957 -5.32952,-13.42701 -12.25496,-16.27517 z m -14.74239,-2.59916 h -18.40917 v -24.67754 h 17.35128 c 9.76874,0 13.92864,3.77365 13.92864,12.60718 0,8.52625 -3.84774,12.07035 -12.86954,12.07035 z m -18.40067,32.55278 v -26.85405 h 18.23427 c 5.76555,0 15.44563,1.73198 15.44563,13.33592 0,9.48333 -4.19389,13.51812 -14.02823,13.51812 z M 85.29281,354.80543 c 0,-16.35776 12.477228,-29.6354 27.87791,-29.6354 15.36668,0 27.87792,13.27764 27.87792,29.6354 0,16.35533 -12.52217,29.63418 -27.87792,29.63418 C 97.814977,384.4384 85.291595,371.16076 85.291595,354.803 Z m 10.804771,0 c 0,14.97559 6.378899,23.93422 17.073139,23.93422 v -0.0219 c 10.64931,0 17.00635,-8.93677 17.00635,-23.91357 0,-14.9768 -6.3121,-23.93544 -17.00635,-23.93544 -10.69424,0 -17.073139,8.95864 -17.073139,23.93423 z m 125.309119,0 c 0,-16.35776 12.47845,-29.6354 27.87913,-29.6354 15.36668,0 27.87913,13.27764 27.87913,29.6354 0,16.35533 -12.52339,29.63418 -27.87913,29.63418 -15.35574,0 -27.87913,-13.27884 -27.87913,-29.6354 z m 10.80599,0 c 0,14.97559 6.37889,23.93422 17.07314,23.93422 v -0.0219 c 10.6493,0 17.00635,-8.93677 17.00635,-23.91357 0,-14.9768 -6.3121,-23.93544 -17.00635,-23.93544 -10.69425,0 -17.07314,8.95864 -17.07314,23.93544 z m 67.73509,-23.25285 h -20.40713 v -5.63193 h 51.17449 v 5.63072 h -20.497 v 52.05505 h -10.27037 v -52.05627 z m 51.46355,-5.63072 h -10.33717 v 57.68577 h 10.33717 v -57.68698 z m 39.32155,52.66962 c 4.58255,0 12.79058,-1.44776 16.29217,-11.12542 l 0.99352,-2.80321 5.00522,2.49593 -0.81497,2.27974 c -3.46758,9.46146 -11.45092,14.89784 -21.91076,14.89784 -15.71404,0 -27.56577,-12.69827 -27.56577,-29.52121 0,-16.60676 12.108,-29.6354 27.56577,-29.6354 10.40276,0 18.33144,5.48255 21.76744,15.05697 l 0.80161,2.27973 -5.00643,2.55302 -0.99352,-2.82629 c -2.53116,-7.1465 -8.40722,-11.25052 -16.13428,-11.25052 -10.7404,0 -17.1533,8.87847 -17.1533,23.78847 0,14.90879 6.4129,23.81034 17.1533,23.81035 z m 130.80624,-5.42425 -2.99999,-8.75459 a 14.829841,14.829841 0 0 0 -6.41168,-7.66998 c 5.37445,-2.40484 10.03595,-6.91938 10.03595,-14.14482 0,-10.42948 -8.3307,-16.65291 -22.30185,-16.65291 h -21.01076 v 57.68578 h 10.34931 v -24.55245 h 9.0218 c 6.61209,0 8.74243,2.64533 10.57279,7.87646 l 2.90888,8.31977 a 28.358882,28.358882 0 0 0 3.25504,7.18173 l 0.78217,1.13926 h 13.90556 l -4.91778,-4.6275 a 14.056163,14.056163 0 0 1 -3.18944,-5.80075 z m -32.33901,-41.62558 h 9.96793 c 8.68779,0 12.40314,3.31577 12.40314,11.08897 0,7.46595 -3.8028,10.79507 -12.32298,10.79507 h -10.03716 z m 48.05183,-5.61979 h 10.33717 v 57.68577 h -10.33717 v -57.68698 z m 49.57977,-0.75303 c -15.38976,0 -27.88034,13.27884 -27.88034,29.63539 0,16.35655 12.53552,29.63539 27.88034,29.63539 15.34482,0 27.8767,-13.27884 27.8767,-29.63539 0,-16.35655 -12.51003,-29.63539 -27.8767,-29.63539 z m 0,5.63072 c 10.64931,0 17.00392,8.95985 17.00392,23.93665 0,14.97681 -6.35461,23.93544 -17.00392,23.93544 -10.65052,0 -17.11808,-8.92462 -17.11808,-23.91358 0,-14.98774 6.43477,-23.95852 17.11808,-23.95851 z M 444.32434,316.75797 h 6.06797 l -4.69429,11.18128 24.71154,55.70239 h -10.99667 l -8.70965,-19.59336 H 430.3192 l -8.44244,19.55935 h -6.05461 z m -4.08094,23.76418 -7.55945,17.82739 h 15.4772 z"
     id="path2"
     inkscape:connector-curvature="0"
     style="stroke-width:1.21456516"
     inkscape:export-filename="C:\Users\suitedoalex\sites\boticario-logo-4.png"
     inkscape:export-xdpi="72.532631"
     inkscape:export-ydpi="72.532631" />
</svg>
