<?xml version="1.0" encoding="UTF-8" standalone="no"?>
<!-- Generator: Adobe Illustrator 23.0.1, SVG Export Plug-In . SVG Version: 6.00 Build 0)  -->

<svg
   xmlns:dc="http://purl.org/dc/elements/1.1/"
   xmlns:cc="http://creativecommons.org/ns#"
   xmlns:rdf="http://www.w3.org/1999/02/22-rdf-syntax-ns#"
   xmlns:svg="http://www.w3.org/2000/svg"
   xmlns="http://www.w3.org/2000/svg"
   xmlns:sodipodi="http://sodipodi.sourceforge.net/DTD/sodipodi-0.dtd"
   xmlns:inkscape="http://www.inkscape.org/namespaces/inkscape"
   version="1.1"
   id="Layer_1"
   x="0px"
   y="0px"
   viewBox="0 0 699.99999 699.99998"
   xml:space="preserve"
   sodipodi:docname="tiffany-co-logo-logo.svg"
   width="700"
   height="700"
   inkscape:version="0.92.0 r15299"
   inkscape:export-filename="C:\Users\suitedoalex\sites\tiffany-co-logo-logo-0.png"
   inkscape:export-xdpi="561.73712"
   inkscape:export-ydpi="561.73712"><metadata
     id="metadata33"><rdf:RDF><cc:Work
         rdf:about=""><dc:format>image/svg+xml</dc:format><dc:type
           rdf:resource="http://purl.org/dc/dcmitype/StillImage" /><dc:title>TCo_Logo1_CMY100K</dc:title></cc:Work></rdf:RDF></metadata><defs
     id="defs31" /><sodipodi:namedview
     pagecolor="#ffffff"
     bordercolor="#666666"
     borderopacity="1"
     objecttolerance="10"
     gridtolerance="10"
     guidetolerance="10"
     inkscape:pageopacity="0"
     inkscape:pageshadow="2"
     inkscape:window-width="1920"
     inkscape:window-height="1017"
     id="namedview29"
     showgrid="false"
     inkscape:zoom="0.41405776"
     inkscape:cx="712.49487"
     inkscape:cy="474.61282"
     inkscape:window-x="-8"
     inkscape:window-y="-8"
     inkscape:window-maximized="1"
     inkscape:current-layer="Layer_1" /><style
     type="text/css"
     id="style2">
	.st0{fill:#231F20;}
</style><title
     id="title4">TCo_Logo1_CMY100K</title><path
     class="st0"
     d="m 129.45878,377.31587 c 0,2.74859 -0.35851,4.89966 -1.67305,6.0947 -1.19504,0.95603 -3.46561,1.19503 -6.93122,1.19503 -0.23901,0 -0.23901,0.95604 0,0.95604 h 26.29084 c 0.23901,0 0.23901,-0.95604 0,-0.95604 -3.46561,0 -5.73618,-0.239 -6.93122,-1.19503 -1.43405,-1.19504 -1.67306,-3.34611 -1.67306,-6.0947 V 337.8796 c 0,-2.74859 0.35852,-4.89965 1.67306,-6.09469 1.19504,-0.95603 3.46561,-1.19504 6.93122,-1.19504 0.23901,0 0.23901,-0.95603 0,-0.95603 h -26.29084 c -0.23901,0 -0.23901,0.95603 0,0.95603 3.46561,0 5.73618,0.23901 6.93122,1.19504 1.43404,1.19504 1.67305,3.3461 1.67305,6.09469 z"
     id="path6"
     inkscape:connector-curvature="0"
     style="fill:#231f20;stroke-width:1.19503844"
     inkscape:export-filename="C:\Users\suitedoalex\sites\tiffany-co-logo-logo-4.png"
     inkscape:export-xdpi="64.873962"
     inkscape:export-ydpi="64.873962" /><path
     class="st0"
     d="m 112.01122,314.45685 0.11951,18.28409 c 0,0.23901 -0.83653,0.35851 -0.83653,0.1195 -4.54115,-11.23336 -7.88726,-16.85004 -21.869205,-16.85004 h -1.55355 v 60.58845 c 0,2.98759 0.358512,5.01916 1.912062,6.4532 1.075534,0.95604 4.899657,1.43405 8.006757,1.43405 0.119504,0 0.239008,1.07554 0,1.07554 H 68.511823 c -0.239008,0 -0.119504,-1.07554 0,-1.07554 3.1071,0 6.931223,-0.47801 8.006757,-1.43405 1.55355,-1.43404 1.792558,-3.46561 1.792558,-6.4532 V 316.0104 h -1.55355 c -13.981949,0 -17.328057,5.61668 -21.869203,16.85004 0,0.11951 -0.95603,0 -0.836527,-0.1195 l 0.119504,-18.28409 z"
     id="path8"
     inkscape:connector-curvature="0"
     style="fill:#231f20;stroke-width:1.19503844"
     inkscape:export-filename="C:\Users\suitedoalex\sites\tiffany-co-logo-logo-4.png"
     inkscape:export-xdpi="64.873962"
     inkscape:export-ydpi="64.873962" /><path
     class="st0"
     d="m 198.29299,329.63384 h -40.6313 c -0.23901,0 -0.11951,0.95603 0,0.95603 3.1071,0 5.25817,0.23901 6.3337,1.19504 1.31454,1.19504 1.55355,3.3461 1.55355,6.09469 v 39.43627 c 0,2.74859 -0.23901,4.89966 -1.55355,6.0947 -1.07553,0.95603 -3.2266,1.19503 -6.3337,1.19503 -0.11951,0 -0.23901,0.95604 0,0.95604 h 25.57382 c 0.23901,0 0.23901,-0.95604 0,-0.95604 -3.46561,0 -5.73619,-0.239 -6.93122,-1.19503 -1.43405,-1.19504 -1.67306,-3.34611 -1.67306,-6.0947 v -19.35962 h 3.82413 c 4.30213,0 6.57271,0.71702 8.36526,2.15107 1.67306,1.55355 2.62909,3.70462 2.74859,5.97519 0,0.23901 0.71703,0.23901 0.83653,0 v -17.68657 c -0.23901,-0.23901 -0.83653,-0.23901 -0.83653,0 0,2.27057 -0.95603,4.42164 -2.74859,5.97519 -1.79255,1.43405 -4.06313,2.15107 -8.36526,2.15107 h -3.94363 v -25.45432 h 5.25817 c 12.6674,0 15.89401,6.0947 17.80607,13.02592 0,0.11951 0.71702,0 0.71702,-0.1195 z"
     id="path10"
     inkscape:connector-curvature="0"
     style="fill:#231f20;stroke-width:1.19503844"
     inkscape:export-filename="C:\Users\suitedoalex\sites\tiffany-co-logo-logo-4.png"
     inkscape:export-xdpi="64.873962"
     inkscape:export-ydpi="64.873962" /><path
     class="st0"
     d="m 246.69205,329.63384 h -40.63131 c -0.23901,0 -0.1195,0.95603 0,0.95603 3.1071,0 5.25817,0.23901 6.33371,1.19504 1.19503,1.19504 1.55355,3.3461 1.55355,6.09469 v 39.43627 c 0,2.74859 -0.23901,4.89966 -1.55355,6.0947 -1.07554,0.95603 -3.22661,1.19503 -6.33371,1.19503 -0.1195,0 -0.23901,0.95604 0,0.95604 h 25.57382 c 0.23901,0 0.11951,-0.95604 0,-0.95604 -3.46561,0 -5.73618,-0.239 -6.93122,-1.19503 -1.43404,-1.19504 -1.67305,-3.34611 -1.67305,-6.0947 v -19.35962 h 3.94362 c 4.30214,0 6.57272,0.71702 8.36527,2.15107 1.67306,1.55355 2.62909,3.70462 2.74859,5.97519 0,0.23901 0.71702,0.23901 0.95603,0 v -17.68657 c -0.23901,-0.23901 -0.95603,-0.23901 -0.95603,0 0,2.27057 -0.95603,4.42164 -2.74859,5.97519 -1.79255,1.43405 -4.06313,2.15107 -8.36527,2.15107 h -3.94362 v -25.45432 h 5.25817 c 12.6674,0 15.89401,6.0947 17.80607,13.02592 0,0.11951 0.71702,0 0.71702,-0.1195 z"
     id="path12"
     inkscape:connector-curvature="0"
     style="fill:#231f20;stroke-width:1.19503844"
     inkscape:export-filename="C:\Users\suitedoalex\sites\tiffany-co-logo-logo-4.png"
     inkscape:export-xdpi="64.873962"
     inkscape:export-ydpi="64.873962" /><path
     class="st0"
     d="m 300.94679,384.6056 c -4.54114,-0.47801 -5.73618,-2.03156 -7.76775,-7.28973 l -18.52309,-49.11608 c 0,-0.23901 -1.31455,-0.23901 -1.31455,0 l -18.16458,48.04055 c -2.50958,6.3337 -4.30214,7.17023 -9.79931,8.36526 -0.11951,0 -0.23901,0.95604 0,0.95604 h 16.61103 c 0.1195,0 0.1195,-0.95604 0,-0.95604 -4.78015,-0.239 -7.17023,-2.15106 -4.78015,-8.36526 l 4.18263,-11.35287 h 17.92558 l 4.42164,11.59187 c 2.03156,5.25817 0,7.76775 -5.01916,8.00676 -0.11951,0 -0.23901,0.95603 0,0.95603 h 22.10821 c 0.35851,0.11951 0.35851,-0.83653 0.1195,-0.83653 m -38.95825,-21.15218 8.24577,-22.34721 8.48477,22.34721 z"
     id="path14"
     inkscape:connector-curvature="0"
     style="fill:#231f20;stroke-width:1.19503844"
     inkscape:export-filename="C:\Users\suitedoalex\sites\tiffany-co-logo-logo-4.png"
     inkscape:export-xdpi="64.873962"
     inkscape:export-ydpi="64.873962" /><path
     class="st0"
     d="m 359.50367,329.63384 h -18.8816 c -0.23901,0 -0.11951,0.95603 0,0.95603 4.18263,0.35851 6.2142,0.71702 7.28973,2.62908 1.19504,2.15107 1.79256,5.85569 1.79256,10.63585 v 27.12737 l -31.54901,-41.34833 h -15.5355 c -0.23901,0 -0.11951,0.95603 0,0.95603 5.85568,0 8.72378,3.34611 8.72378,8.12626 v 32.50504 c 0,4.89966 -0.35852,8.48478 -1.55355,10.63585 -1.07554,1.91206 -2.15107,2.27057 -6.0947,2.62908 -0.1195,0 -0.1195,0.95603 0,0.95603 h 18.6426 c 0.23901,0 0.1195,-0.95603 0,-0.95603 -4.18263,-0.35851 -6.2142,-0.71702 -7.28973,-2.62908 -1.19504,-2.15107 -1.79256,-5.85569 -1.79256,-10.63585 v -33.10256 l 37.16569,47.80154 c 0.35851,0.47801 1.19504,0.35851 1.19504,0 V 343.9743 c 0,-4.89966 0.23901,-8.48477 1.55355,-10.63584 1.07554,-1.91206 2.15107,-2.27058 6.3337,-2.62909 0.11951,-0.1195 0.11951,-1.07553 0,-1.07553 z"
     id="path16"
     inkscape:connector-curvature="0"
     style="fill:#231f20;stroke-width:1.19503844"
     inkscape:export-filename="C:\Users\suitedoalex\sites\tiffany-co-logo-logo-4.png"
     inkscape:export-xdpi="64.873962"
     inkscape:export-ydpi="64.873962" /><path
     class="st0"
     d="m 415.43147,329.63384 h -15.89401 c -0.23901,0 -0.1195,0.95603 0,0.95603 5.01916,0.1195 6.81172,2.03156 5.01916,5.73618 l -11.23336,21.51069 -12.18939,-21.8692 c -1.79256,-3.58511 0.1195,-5.37767 5.25817,-5.37767 0.1195,0 0.1195,-0.95603 0,-0.95603 H 363.5668 c -0.239,0 -0.1195,0.95603 0,0.95603 4.54115,0.35851 5.73619,1.43404 7.52875,4.89966 l 13.98195,25.57382 v 16.13302 c 0,2.74858 -0.23901,4.89965 -1.55355,6.09469 -1.07554,0.95603 -3.22661,1.19504 -6.33371,1.19504 -0.1195,0 -0.1195,0.95603 0,0.95603 h 24.8568 c 0.23901,0 0.11951,-0.95603 0,-0.95603 -3.1071,0 -5.25817,-0.23901 -6.3337,-1.19504 -1.19504,-1.19504 -1.55355,-3.34611 -1.55355,-6.09469 v -17.80608 l 12.5479,-23.18374 c 2.15107,-4.18264 4.06313,-5.25817 8.60428,-5.61668 0.23901,0 0.35851,-0.95603 0.1195,-0.95603 z"
     id="path18"
     inkscape:connector-curvature="0"
     style="fill:#231f20;stroke-width:1.19503844"
     inkscape:export-filename="C:\Users\suitedoalex\sites\tiffany-co-logo-logo-4.png"
     inkscape:export-xdpi="64.873962"
     inkscape:export-ydpi="64.873962" /><path
     class="st0"
     d="m 604.96456,328.79731 c 15.5355,0 27.9639,12.78691 27.9639,28.68092 0,15.89401 -12.4284,28.68092 -27.9639,28.68092 -15.5355,0 -27.9639,-12.78691 -27.9639,-28.68092 0,-15.89401 12.4284,-28.68092 27.9639,-28.68092 m -0.1195,1.43405 c -11.35287,0 -17.20855,11.59187 -17.20855,27.36638 0,15.7745 5.85568,27.36638 17.20855,27.36638 11.35286,0 17.20855,-11.59188 17.20855,-27.36638 0,-15.77451 -5.73618,-27.36638 -17.20855,-27.36638 z"
     id="path20"
     inkscape:connector-curvature="0"
     style="fill:#231f20;stroke-width:1.19503844"
     inkscape:export-filename="C:\Users\suitedoalex\sites\tiffany-co-logo-logo-4.png"
     inkscape:export-xdpi="64.873962"
     inkscape:export-ydpi="64.873962" /><path
     class="st0"
     d="m 568.51589,364.76797 c 0,-0.23901 -0.71702,-0.35851 -0.83653,0.1195 -2.62908,12.5479 -11.83088,20.07665 -20.31565,20.07665 -16.25252,0 -26.64935,-14.57947 -26.64935,-34.65612 0,-20.07664 9.08229,-35.01462 25.33481,-35.01462 9.08229,0 18.52309,6.93122 21.27168,19.12061 0,0.11951 0.95603,0 0.83653,-0.1195 l -0.59752,-20.79367 c 0,-0.1195 -0.95603,-0.23901 -0.95603,0 -0.35851,3.1071 -2.27057,4.89966 -5.49718,3.70462 -4.66065,-1.79256 -9.91882,-3.58512 -15.29649,-3.58512 -20.19615,0 -37.2852,16.49153 -37.2852,36.68768 0,20.19615 17.08905,36.32917 37.2852,36.32917 8.48477,0 15.77451,-1.91206 21.7497,-6.0947 z"
     id="path22"
     inkscape:connector-curvature="0"
     style="fill:#231f20;stroke-width:1.19503844"
     inkscape:export-filename="C:\Users\suitedoalex\sites\tiffany-co-logo-logo-4.png"
     inkscape:export-xdpi="64.873962"
     inkscape:export-ydpi="64.873962" /><path
     class="st0"
     d="m 640.2182,375.1648 c 3.1071,-0.1195 5.61668,2.39008 5.73618,5.49718 0.1195,3.1071 -2.39008,5.61668 -5.49718,5.73618 -3.1071,0.11951 -5.61668,-2.39007 -5.73618,-5.49717 0,0 0,-0.11951 0,-0.11951 0,-2.98759 2.39008,-5.49717 5.49718,-5.61668 -0.11951,0 0,0 0,0 z"
     id="path24"
     inkscape:connector-curvature="0"
     style="fill:#231f20;stroke-width:1.19503844"
     inkscape:export-filename="C:\Users\suitedoalex\sites\tiffany-co-logo-logo-4.png"
     inkscape:export-xdpi="64.873962"
     inkscape:export-ydpi="64.873962" /><path
     class="st0"
     d="M 491.67492,352.10056 H 469.3277 c -0.1195,0 -0.1195,0.95603 0,0.95603 5.37768,0 8.60428,2.03157 6.57271,6.45321 -1.55354,3.34611 -3.46561,6.45321 -5.61668,9.3213 l -16.37202,-21.03268 c 9.56031,-4.66065 14.69897,-9.20179 14.69897,-16.73054 0,-5.25816 -5.73618,-11.11385 -13.50393,-11.11385 -8.24577,0 -15.416,6.93122 -15.416,14.34046 0,4.89966 1.31454,8.24576 5.97519,15.29649 -9.3213,3.46561 -17.44756,10.99435 -17.44756,19.83764 0,9.91882 7.88726,16.96954 18.40359,16.96954 7.76775,0 13.98195,-4.18263 19.35963,-9.79931 l 6.69221,8.72378 h 16.49153 c 0.23901,0 0.11951,-0.95603 0,-0.95603 -3.1071,0 -3.94363,-0.23901 -5.73618,-1.19504 -2.50958,-1.55355 -4.78016,-3.58512 -6.57271,-6.0947 l -5.37768,-6.93122 c 3.1071,-4.18263 5.97519,-8.48477 8.72378,-12.3089 2.03157,-2.86809 4.30214,-4.30213 11.71138,-4.78015 0,0.1195 0.1195,-0.83653 -0.23901,-0.95603 m -36.20966,-30.23447 c 5.13866,0 8.24576,3.94363 8.24576,10.27733 0,5.61668 -4.66065,11.95038 -10.87485,14.34046 -4.66065,-6.69222 -5.61668,-10.87485 -5.61668,-14.69897 0,-7.17023 3.1071,-9.79932 8.24577,-9.91882 m -18.04508,43.97741 c 0,-7.05072 3.2266,-11.83088 9.20179,-14.69897 l 18.16459,24.13978 c -4.30214,3.94362 -8.96279,6.57271 -13.38443,6.57271 -7.76775,-0.11951 -13.98195,-6.57271 -13.98195,-16.01352 z"
     id="path26"
     inkscape:connector-curvature="0"
     style="fill:#231f20;stroke-width:1.19503844"
     inkscape:export-filename="C:\Users\suitedoalex\sites\tiffany-co-logo-logo-4.png"
     inkscape:export-xdpi="64.873962"
     inkscape:export-ydpi="64.873962" /></svg>