<?xml version="1.0" encoding="UTF-8" standalone="no"?>
<svg
   xmlns:dc="http://purl.org/dc/elements/1.1/"
   xmlns:cc="http://creativecommons.org/ns#"
   xmlns:rdf="http://www.w3.org/1999/02/22-rdf-syntax-ns#"
   xmlns:svg="http://www.w3.org/2000/svg"
   xmlns="http://www.w3.org/2000/svg"
   xmlns:sodipodi="http://sodipodi.sourceforge.net/DTD/sodipodi-0.dtd"
   xmlns:inkscape="http://www.inkscape.org/namespaces/inkscape"
   viewBox="0 0 4096 4096"
   id="logo-vivo-vivinho"
   version="1.1"
   sodipodi:docname="vivo-logo-1.svg"
   width="4096"
   height="4096"
   inkscape:export-filename="G:\Users\suitedoalex\sites\svg\vivo-logo-0.png"
   inkscape:export-xdpi="96"
   inkscape:export-ydpi="96"
   inkscape:version="0.92.2 (5c3e80d, 2017-08-06)">
  <metadata
     id="metadata9">
    <rdf:RDF>
      <cc:Work
         rdf:about="">
        <dc:format>image/svg+xml</dc:format>
        <dc:type
           rdf:resource="http://purl.org/dc/dcmitype/StillImage" />
        <dc:title></dc:title>
      </cc:Work>
    </rdf:RDF>
  </metadata>
  <defs
     id="defs7" />
  <sodipodi:namedview
     pagecolor="#ffffff"
     bordercolor="#666666"
     borderopacity="1"
     objecttolerance="10"
     gridtolerance="10"
     guidetolerance="10"
     inkscape:pageopacity="0"
     inkscape:pageshadow="2"
     inkscape:window-width="1920"
     inkscape:window-height="1017"
     id="namedview5"
     showgrid="false"
     inkscape:zoom="0.070289781"
     inkscape:cx="-1032.2594"
     inkscape:cy="1707.498"
     inkscape:window-x="-8"
     inkscape:window-y="-8"
     inkscape:window-maximized="1"
     inkscape:current-layer="logo-vivo-vivinho" />
  <path
     d="m 3497.5267,1691.1788 c 0.094,40.3238 -14.0175,103.2768 -58.2386,147.7806 a 227.86257,227.86257 0 0 1 -39.7894,32.1208 c -20.7434,13.546 -35.8295,22.9748 -27.3436,45.5411 8.2974,22.0948 33.9437,15.1804 58.3014,9.6173 7.8259,-1.9171 160.4782,-38.9095 162.4268,-39.0037 a 78.00757,78.00757 0 0 1 90.4536,58.3014 l 12.4773,51.7012 a 78.259006,78.259006 0 0 1 -53.6497,93.4394 c -1.7287,0.7543 -168.5555,41.4238 -168.8383,41.4867 -31.6809,8.1716 -50.2241,24.012 -50.0984,54.687 0,13.6718 7.9516,28.5378 17.7261,40.858 0,0 181.9129,224.9398 182.8244,226.6997 a 78.290434,78.290434 0 0 1 -13.3575,106.9226 l -41.1723,33.6294 a 77.818995,77.818995 0 0 1 -107.174,-8.2031 c -1.4773,-1.2571 -114.4656,-139.7662 -126.4403,-154.5065 -11.9745,-14.6461 -27.0292,-37.0237 -47.9611,-36.9294 -20.8061,0 -35.7666,22.5034 -47.7097,37.2123 -11.9117,14.7718 -124.2715,153.8465 -125.6544,155.0722 a 77.881854,77.881854 0 0 1 -107.174,8.8002 c -0.3457,-0.3143 -41.1724,-33.4093 -41.2981,-33.4407 a 78.416152,78.416152 0 0 1 -13.9547,-106.8597 c 0.8801,-1.76 181.7558,-227.6112 181.7558,-227.6112 9.6803,-12.3517 17.5691,-27.2806 17.5376,-40.9524 -0.1257,-30.675 -18.6376,-46.421 -50.4126,-54.4356 -0.2829,0 -167.2983,-39.9152 -168.9955,-40.6381 a 78.321864,78.321864 0 0 1 -54.1527,-93.1879 c 0.063,-0.4715 12.1631,-51.6384 12.226,-51.7956 a 78.070429,78.070429 0 0 1 90.1393,-58.7727 c 1.8857,0 154.7579,36.3951 162.6153,38.2494 24.3577,5.4058 50.1298,12.2575 58.27,-9.9002 8.3287,-22.6291 -6.7574,-31.9951 -27.5635,-45.4153 a 226.60539,226.60539 0 0 1 -39.9781,-31.9323 c -44.4411,-44.221 -58.8672,-107.174 -58.9614,-147.4978 -0.2515,-115.6599 95.7336,-209.6335 211.0793,-209.9478 115.3456,-0.3143 211.8021,93.2508 212.0535,208.9107 z M 694.37704,2390.5755 c -9.1145,0 -44.06391,-4.7773 -63.29865,-39.9467 L 406.70448,1951.9479 c -23.00626,-42.241 4.08581,-78.0705 28.09781,-86.965 l 59.68427,-26.8092 c 32.08934,-14.3946 70.71597,0.8172 85.17347,34.4779 l 140.74048,283.7754 h 2.10577 l 140.9291,-283.7754 c 14.4575,-33.6293 53.0212,-48.8725 85.1734,-34.4779 l 59.68432,26.8092 c 23.9806,8.8945 51.0726,44.724 28.0663,86.965 l -224.37392,398.6809 a 76.310388,76.310388 0 0 1 -63.3614,39.9152 h -54.21561 z m 985.87496,0 a 76.278959,76.278959 0 0 1 -63.3301,-39.9467 l -224.4053,-398.6809 c -23.0378,-42.241 4.1172,-78.0705 28.1292,-86.965 l 59.6529,-26.8092 c 32.1207,-14.3946 70.653,0.8172 85.1734,34.4779 l 140.8034,283.7754 h 2.0743 l 140.8976,-283.7754 c 14.489,-33.6293 53.0528,-48.8725 85.1735,-34.4779 l 59.6843,26.8092 c 23.9805,8.8945 51.104,44.724 28.1293,86.965 l -224.4054,398.6809 a 76.2161,76.2161 0 0 1 -63.3615,39.9152 h -54.1841 z m 658.4757,-555.9219 c 154.7579,0 280.0666,125.7173 280.0666,280.7267 0,155.1037 -125.3087,280.8524 -280.0352,280.8524 -154.6323,0 -280.0352,-125.7487 -280.0352,-280.8524 0,-154.978 125.4029,-280.7267 280.0352,-280.7267 z M 1324.0635,1674.8355 c 0,60.7843 -49.1554,110.0027 -109.7512,110.0027 a 109.84547,109.84547 0 0 1 -109.7826,-110.0027 c 0,-60.7842 49.1554,-110.0026 109.7826,-110.0026 a 109.8769,109.8769 0 0 1 109.7512,110.0026 z m 1014.6956,551.4274 a 110.72549,110.72549 0 0 0 110.5369,-110.8826 110.69406,110.69406 0 0 0 -110.5369,-110.7884 110.66263,110.66263 0 0 0 -110.5369,110.7884 110.69406,110.69406 0 0 0 110.5369,110.8826 z m -1219.9605,-317.939 c 0,-37.4951 30.2664,-67.8873 67.6674,-67.8873 h 56.6356 c 37.4008,0 67.6987,30.3922 67.6987,67.8873 v 414.3957 c 0,37.4951 -30.2979,67.8559 -67.6987,67.8559 h -56.6356 a 67.730183,67.730183 0 0 1 -67.6674,-67.8874 v -414.3328 z"
     id="path2"
     style="fill:#660099;fill-opacity:1;fill-rule:evenodd;stroke-width:31.42931938"
     inkscape:connector-curvature="0"
     inkscape:export-xdpi="96"
     inkscape:export-ydpi="96" />
</svg>
